<svg width="128" height="128" viewBox="0 0 128 128" xmlns="http://www.w3.org/2000/svg">
  <defs>
    <radialGradient id="glow" cx="50%" cy="50%" r="70%">
      <stop offset="0%" stop-color="#00F0FF" stop-opacity="0.9"/>
      <stop offset="100%" stop-color="#FF00AA" stop-opacity="0"/>
    </radialGradient>
  </defs>

  <!-- Фоновая звезда / планета -->
  <circle cx="64" cy="64" r="48" fill="url(#glow)" opacity="0.4"/>

  <!-- Звуковая волна в форме G -->
  <path d="M30 64 Q 30 30, 64 30 Q 98 30, 98 64 Q 98 98, 64 98 Q 30 98, 30 64 Z
           M40 64 Q 40 44, 64 44 Q 88 44, 88 64 Q 88 84, 64 84 Q 40 84, 40 64 Z"
        fill="none" stroke="#00F0FF" stroke-width="8" stroke-linecap="round"/>

  <!-- Внутренняя звезда -->
  <polygon points="64,44 70,58 84,58 73,68 78,82 64,74 50,82 55,68 44,58 58,58" 
           fill="#FF00AA" opacity="0.8"/>

  <!-- Текст GuesSong (маленький) -->
  <text x="64" y="110" font-family="Orbitron, sans-serif" font-size="18" fill="#d0d8ff" text-anchor="middle">
    GuesSong
  </text>
</svg>